<?xml version="1.0" encoding="UTF-8"?>
<svg id="Layer_1" data-name="Layer 1" xmlns="http://www.w3.org/2000/svg" viewBox="0 0 16 16">
  <defs>
    <style>
      .cls-1 {
        fill: #6ca0dc;
      }
    </style>
  </defs>
  <path class="cls-1" d="M0,10.98v-6.65h2.59c.51,0,.94.1,1.29.29.35.19.62.46.81.79s.28.73.28,1.16-.09.83-.28,1.16c-.19.33-.46.6-.82.79s-.79.28-1.31.28H.89v-1.1h1.45c.28,0,.51-.05.69-.15s.31-.23.4-.4.13-.37.13-.59-.04-.42-.13-.59c-.09-.17-.22-.3-.4-.39-.18-.09-.41-.14-.69-.14h-.98v5.53H0Z"/>
  <path class="cls-1" d="M5.92,10.98v-6.65h1.36v5.52h2.87v1.13h-4.23Z"/>
  <path class="cls-1" d="M13.92,4.02l-2.14,7.96h-1.16l2.14-7.96h1.16Z"/>
  <path class="cls-1" d="M16,4.33v6.65h-1.36v-6.65h1.36Z"/>
</svg>