<?xml version="1.0" encoding="UTF-8"?>
<svg id="Layer_1" data-name="Layer 1" xmlns="http://www.w3.org/2000/svg" viewBox="0 0 16 16">
  <defs>
    <style>
      .cls-1 {
        fill: #6ca0dc;
      }
    </style>
  </defs>
  <path class="cls-1" d="M0,12.27V3.73h3.33c.65,0,1.2.12,1.66.37.45.25.8.59,1.04,1.02s.36.93.36,1.49-.12,1.06-.36,1.49c-.24.43-.6.77-1.06,1.01s-1.02.36-1.68.36H1.15v-1.41h1.86c.36,0,.66-.06.89-.19s.4-.3.52-.51.17-.47.17-.76-.06-.54-.17-.75c-.11-.22-.29-.39-.52-.5-.23-.12-.53-.18-.89-.18h-1.26v7.1H0Z"/>
  <path class="cls-1" d="M7.61,12.27V3.73h1.75v7.09h3.69v1.45h-5.44Z"/>
  <path class="cls-1" d="M16,3.73v8.55h-1.75V3.73h1.75Z"/>
</svg>