<svg width="128" height="128" viewBox="0 0 128 128" fill="none" xmlns="http://www.w3.org/2000/svg">
<circle cx="64" cy="64" r="64" fill="#CC092F"/>
<path fill-rule="evenodd" clip-rule="evenodd" d="M50.4088 85.9896C51.1824 85.216 52.4367 85.216 53.2103 85.9896L57.9048 90.6841L62.5993 85.9896C63.3729 85.216 64.6271 85.216 65.4007 85.9896L70.0952 90.6841L74.7897 85.9896C75.5633 85.216 76.8176 85.216 77.5912 85.9896L83.6865 92.0849C84.4601 92.8585 84.4601 94.1127 83.6865 94.8864C82.9129 95.66 81.6586 95.66 80.885 94.8864L76.1905 90.1919L71.496 94.8864C70.7224 95.66 69.4681 95.66 68.6945 94.8864L64 90.1919L59.3055 94.8864C58.5319 95.66 57.2776 95.66 56.504 94.8864L51.8095 90.1919L47.115 94.8864C46.3414 95.66 45.0872 95.66 44.3135 94.8864C43.5399 94.1127 43.5399 92.8585 44.3135 92.0849L50.4088 85.9896Z" fill="white"/>
<path d="M88.405 40C89.5516 40 90.341 41.1468 89.9303 42.2188L77.7497 73.9414C77.5044 74.576 76.8961 74.997 76.2135 74.9971C75.0615 74.9971 74.2663 73.8396 74.6823 72.7676L86.8854 41.0449C87.1255 40.4159 87.7332 40.0002 88.405 40ZM30.5602 40C32.9921 40 35.0507 40.4211 36.736 41.2637C38.416 42.1063 39.6958 43.2694 40.5651 44.7627C41.4344 46.24 41.8717 47.9305 41.8717 49.8291C41.8717 51.8931 41.4344 53.6588 40.5651 55.1201C39.6958 56.5813 38.4159 57.6959 36.736 58.4639C35.0561 59.2158 32.9975 59.5947 30.5602 59.5947V59.5889H22.944V70.0957C22.944 71.2744 21.9893 72.2344 20.8053 72.2344C19.6267 72.2344 18.6667 71.2797 18.6667 70.0957V42.667C18.672 41.195 19.8666 40.0001 21.3385 40H30.5602ZM52.1276 40C53.3063 40 54.2614 40.9547 54.2614 42.1387V68.752H67.7975C68.7573 68.7521 69.5356 69.5305 69.5358 70.4902C69.5358 71.4502 68.7574 72.2294 67.7975 72.2295H52.2223C52.1893 72.231 52.1562 72.2344 52.1227 72.2344C50.9441 72.2344 49.9841 71.2797 49.9841 70.0957V42.1387C49.9894 40.9548 50.9491 40.0002 52.1276 40ZM107.451 40C108.629 40.0001 109.584 40.9547 109.584 42.1387C109.584 43.3173 108.629 44.2773 107.445 44.2773H106.384V67.9521H107.456C108.634 67.9521 109.594 68.9068 109.594 70.0908C109.594 71.2694 108.64 72.2295 107.456 72.2295H104.345C104.312 72.231 104.279 72.2344 104.246 72.2344C104.212 72.2344 104.179 72.231 104.146 72.2295H101.046C99.867 72.2295 98.907 71.2747 98.9069 70.0908C98.9069 68.9122 99.8616 67.9521 101.046 67.9521H102.107V44.2773H101.035C99.8562 44.2773 98.8962 43.3227 98.8962 42.1387H98.9069C98.9069 40.9548 99.8612 40.0002 101.04 40H107.451ZM22.944 56.1123H30.5602C32.2293 56.1123 33.5784 55.8453 34.613 55.3174C35.6476 54.784 36.4005 54.0475 36.8698 53.1035C37.3549 52.1597 37.6003 51.0825 37.6003 49.8721C37.6003 48.7628 37.3551 47.7226 36.8698 46.752C36.3951 45.776 35.6423 44.9973 34.613 44.4053C33.5784 43.8028 32.2293 43.4991 30.5602 43.499H22.944V56.1123Z" fill="white"/>
</svg>
